<svg width="436" height="39" viewBox="0 0 436 39" fill="none" xmlns="http://www.w3.org/2000/svg">
<path d="M28.7243 0H39.7372V39H30.5408V12.48L25.375 19.5L19.8686 27.0214L14.3621 19.5L9.19631 12.48V39H0V0H11.0129L19.8686 12.0343L28.7243 0Z" fill="black"/>
<path d="M45.4028 0H85.14V39H75.9436V24.0129H54.5991V39H45.4028V0ZM75.9436 14.9871V8.97H54.5991V14.9871H75.9436Z" fill="black"/>
<path d="M121.346 0H130.543V39H121.346V24.0129H100.002V39H90.8056V0H100.002V14.9871H121.346V0Z" fill="black"/>
<path d="M175.946 9.02571H145.405V14.9871H175.946V24.0129H145.405V29.9743H175.946V39H136.208V0H175.946V9.02571Z" fill="black"/>
<path d="M221.348 0V24.0129H210.279L221.348 39H210.336L199.266 24.0129H190.808V39H181.611V0H190.808V14.9871H212.152V0H221.348Z" fill="black"/>
<path d="M266.751 9.02571H236.21V14.9871H266.751V24.0129H236.21V29.9743H266.751V39H227.014V0H266.751V9.02571Z" fill="black"/>
<path d="M302.958 0H312.154V39H302.958V24.0129H281.613V39H272.417V0H281.613V14.9871H302.958V0Z" fill="black"/>
<path d="M355.819 0H390.561V39H355.819V24.0129H349.745V39H340.549V0H349.745V14.9871H355.819V0ZM381.365 29.9743V8.97H365.016V29.9743H381.365Z" fill="black"/>
<path d="M396.263 0H436V39H426.804V24.0129H405.459V39H396.263V0ZM426.804 14.9871V8.97H405.459V14.9871H426.804Z" fill="black"/>
</svg>
